# xmcd
#
# Track frame offsets: 
#        183
#        13585
#        25535
#        37373
#        47938
#        58380
#        69180
#        83200
#        94708
#        105708
#        117718
#
# Disc length: 1728 seconds
#
# Revision: 2
# Processed by: cddbd v1.5.2PL0 Copyright (c) Steve Scherf et al.
# Submitted via: ExactAudioCopy v1.0b3
#
DISCID=9606be0b
DTITLE=Wilson Pickett - IL Grande Rock
DYEAR=1991
DGENRE=Rhythmic Soul
TTITLE0=634-5789
TTITLE1=Inthe midnight hour
TTITLE2=Funky Broadway
TTITLE3=She's looking good
TTITLE4=Everybody needs somebody
TTITLE5=I found a true love
TTITLE6=Mustang Sally
TTITLE7=Don't fight it
TTITLE8=I'm a midnight mover
TTITLE9=Soul dance number three
TTITLE10=Ninety-nine and one half (won't do)
EXTD=
EXTT0=
EXTT1=
EXTT2=
EXTT3=
EXTT4=
EXTT5=
EXTT6=
EXTT7=
EXTT8=
EXTT9=
EXTT10=
PLAYORDER=
